<?xml version="1.0" encoding="iso-8859-1"?>
<!-- Generator: Adobe Illustrator 19.0.0, SVG Export Plug-In . SVG Version: 6.00 Build 0)  -->
<svg version="1.1" id="Capa_1" xmlns="http://www.w3.org/2000/svg" xmlns:xlink="http://www.w3.org/1999/xlink" x="0px" y="0px"
	 viewBox="0 0 512 512" style="enable-background:new 0 0 512 512;" xml:space="preserve">
<g>
	<g transform="translate(1 1)">
		<path style="fill:#607D8B;" d="M502.467,75.8v341.333c-0.028,9.414-7.653,17.039-17.067,17.067H24.6
			c-9.414-0.028-17.039-7.652-17.067-17.067V75.8l8.533-8.533h477.867L502.467,75.8z"/>
		<path style="fill:#CFD8DC;" d="M476.867,75.8v341.333c-0.028,9.414-7.653,17.039-17.067,17.067H24.6
			c-9.414-0.028-17.039-7.652-17.067-17.067V75.8l8.533-8.533h452.267L476.867,75.8z"/>
		<path style="fill:#0377BC;" d="M451.267,306.2C451.251,414.589,363.389,502.451,255,502.467c-4.352,0-8.619-0.171-12.8-0.427
			C138.996,495.299,58.735,409.624,58.735,306.2S138.996,117.101,242.2,110.36c4.181-0.256,8.448-0.427,12.8-0.427
			C363.389,109.949,451.251,197.811,451.267,306.2z"/>
		<ellipse style="fill:#2296F3;" cx="242.2" cy="306.2" rx="183.467" ry="195.84"/>
		<path style="fill:#FFEB3A;" d="M417.133,306.2h-51.2c-0.037-39.604-21.174-76.188-55.467-96l25.6-44.373
			C386.221,194.781,417.122,248.288,417.133,306.2z"/>
		<path style="fill:#FEC108;" d="M336.067,165.827l-25.6,44.373c-34.297-19.911-76.636-19.911-110.933,0l-25.6-44.373
			C224.084,136.813,285.916,136.813,336.067,165.827z"/>
		<path style="fill:#FF9801;" d="M199.533,210.2c-34.293,19.812-55.43,56.396-55.467,96h-51.2
			c0.011-57.912,30.913-111.419,81.067-140.373L199.533,210.2z"/>
		<path style="fill:#E91E63;" d="M199.533,402.2l-25.6,44.373C123.78,417.619,92.878,364.112,92.867,306.2h51.2
			C144.103,345.804,165.241,382.388,199.533,402.2z"/>
		<path style="fill:#4CAF50;" d="M417.133,306.2c-0.012,57.912-30.913,111.419-81.067,140.373l-25.6-44.373
			c34.293-19.812,55.43-56.396,55.467-96H417.133z"/>
		<path style="fill:#CFD8DC;" d="M289.133,306.2c0,18.851-15.282,34.133-34.133,34.133s-34.133-15.282-34.133-34.133
			c0-18.851,34.133-128,34.133-128S289.133,287.349,289.133,306.2z"/>
		<path style="fill:#00695C;" d="M502.467,24.6v51.2H7.533V24.6C7.561,15.186,15.186,7.561,24.6,7.533h460.8
			C494.814,7.561,502.439,15.186,502.467,24.6z"/>
		<path style="fill:#009688;" d="M476.867,24.6v51.2H7.533V24.6C7.561,15.186,15.186,7.561,24.6,7.533h435.2
			C469.214,7.561,476.839,15.186,476.867,24.6z"/>
	</g>
	<g>
		<path d="M341.338,159.437c-52.787-30.536-117.868-30.539-170.658-0.007l-0.009,0.003l-0.005,0.004l-0.008,0.004
			C117.86,189.913,85.333,246.24,85.333,307.2s32.527,117.287,85.325,147.758l0.005,0.002l0.008,0.007
			c0.883,0.489,1.847,0.814,2.846,0.959c0.246,0.042,0.479,0.074,0.725,0.094c0.229,0.018,0.455,0.089,0.683,0.089
			c0.737,0,1.471-0.096,2.184-0.284l0.115-0.047c0.894-0.266,1.739-0.677,2.5-1.217c0.208-0.142,0.398-0.286,0.594-0.447
			c0.793-0.624,1.467-1.387,1.989-2.251l0.01-0.012l0.001-0.003l0.007-0.009l25.588-44.354l0.004-0.004l0.002-0.005l0.007-0.011
			c0.159-0.376,0.289-0.763,0.389-1.158c0.313-0.651,0.544-1.338,0.687-2.046c0.004-0.427-0.025-0.854-0.086-1.276
			c0.177-1.133-0.089-2.29-0.745-3.231c-0.212-0.594-0.489-1.162-0.828-1.694c-0.325-0.338-0.676-0.649-1.051-0.93
			c-0.438-0.495-0.935-0.935-1.479-1.31c-31.688-18.259-51.214-52.049-51.212-88.621s19.531-70.36,51.221-88.616
			c10.476-5.98,21.947-10.015,33.859-11.912c-10.319,34.42-25.347,86.888-25.347,100.532c0,23.564,19.103,42.667,42.667,42.667
			c23.564,0,42.667-19.103,42.667-42.667c0-13.643-15.027-66.111-25.346-100.532c11.915,1.897,23.389,5.934,33.867,11.915
			C338.874,236.842,358.4,270.63,358.4,307.2s-19.526,70.358-51.212,88.617c-0.544,0.375-1.041,0.815-1.479,1.31
			c-0.374,0.281-0.726,0.592-1.051,0.93c-0.339,0.532-0.616,1.1-0.828,1.694c-0.655,0.941-0.922,2.099-0.745,3.231
			c-0.062,0.423-0.091,0.849-0.086,1.276c0.143,0.708,0.374,1.395,0.687,2.046c0.1,0.395,0.23,0.782,0.389,1.158l0.007,0.011
			l0.002,0.005l0.005,0.006l25.586,44.352l0.007,0.009l0.001,0.003c0.095,0.165,0.235,0.282,0.339,0.438
			c0.723,1.116,1.697,2.046,2.845,2.716c0.095,0.054,0.206,0.073,0.303,0.123c1.195,0.657,2.54,0.995,3.904,0.982
			c1.494,0.001,2.961-0.393,4.254-1.142l0.007-0.006l0.006-0.003c52.799-30.472,85.326-86.801,85.325-147.762
			C426.666,246.236,394.137,189.908,341.338,159.437L341.338,159.437z M189.048,406.032l-17.092,29.629
			c-40.746-26.782-66.431-71.251-69.27-119.928h34.175C139.59,352.212,158.803,385.456,189.048,406.032z M136.862,298.667h-34.175
			c2.839-48.677,28.524-93.145,69.27-119.927l17.092,29.628C158.803,228.943,139.59,262.188,136.862,298.667z M281.6,307.2
			c0,14.138-11.461,25.6-25.6,25.6c-14.138,0-25.6-11.462-25.6-25.6c0-10.333,13.525-58.675,25.6-98.863
			C268.075,248.525,281.6,296.867,281.6,307.2z M267.862,188.668c-1.804-5.881-3.135-10.157-3.716-12.014
			c-1.114-3.562-4.413-5.987-8.146-5.987c-3.732,0-7.032,2.425-8.146,5.987c-0.58,1.857-1.913,6.133-3.716,12.014
			c-13.992,1.308-27.642,5.085-40.317,11.156l-17.097-29.635c43.536-22.117,95.016-22.117,138.553-0.001l-17.098,29.637
			C295.504,193.754,281.854,189.977,267.862,188.668z M322.953,208.366l17.092-29.627c40.744,26.783,66.429,71.251,69.269,119.928
			h-34.176C372.41,262.187,353.198,228.943,322.953,208.366z M340.045,435.661l-17.093-29.629
			c30.245-20.576,49.458-53.82,52.186-90.299h34.176C406.475,364.41,380.79,408.879,340.045,435.661L340.045,435.661z"/>
		<path d="M486.4,0H25.6C11.468,0.015,0.015,11.468,0,25.6v392.533c0.015,14.132,11.468,25.585,25.6,25.6h77.917
			C142.302,487.167,197.769,512,256,512s113.698-24.833,152.483-68.267H486.4c14.132-0.015,25.585-11.468,25.6-25.6V25.6
			C511.985,11.468,500.532,0.015,486.4,0z M256,494.933c-103.682,0-187.733-84.051-187.733-187.733S152.318,119.467,256,119.467
			S443.733,203.518,443.733,307.2C443.616,410.834,359.634,494.816,256,494.933z M494.933,418.133
			c-0.006,4.71-3.823,8.527-8.533,8.533h-64.212c53.799-74.542,51.143-175.846-6.486-247.467H460.8c4.713,0,8.533-3.821,8.533-8.533
			c0-4.713-3.82-8.533-8.533-8.533h-60.389c-9.594-9.542-20.103-18.116-31.376-25.6H460.8c4.713,0,8.533-3.821,8.533-8.533
			c0-4.713-3.82-8.533-8.533-8.533H337.731c-52.112-22.756-111.351-22.756-163.463,0H51.2c-4.713,0-8.533,3.821-8.533,8.533
			c0,4.713,3.821,8.533,8.533,8.533h91.765c-11.273,7.484-21.782,16.058-31.376,25.6H51.2c-4.713,0-8.533,3.821-8.533,8.533
			c0,4.713,3.821,8.533,8.533,8.533h45.099c-57.63,71.621-60.285,172.925-6.486,247.467H25.6c-4.71-0.006-8.527-3.823-8.533-8.533
			v-332.8h477.867V418.133z M494.933,68.267H17.067V25.6c0.006-4.71,3.823-8.527,8.533-8.533h460.8
			c4.71,0.006,8.527,3.823,8.533,8.533V68.267z"/>
		<path d="M59.733,34.133H42.667c-4.713,0-8.533,3.821-8.533,8.533s3.821,8.533,8.533,8.533h17.067c4.713,0,8.533-3.821,8.533-8.533
			S64.446,34.133,59.733,34.133z"/>
		<path d="M110.933,34.133H93.867c-4.713,0-8.533,3.821-8.533,8.533s3.821,8.533,8.533,8.533h17.067
			c4.713,0,8.533-3.821,8.533-8.533S115.646,34.133,110.933,34.133z"/>
		<path d="M162.133,34.133h-17.067c-4.713,0-8.533,3.821-8.533,8.533s3.821,8.533,8.533,8.533h17.067
			c4.713,0,8.533-3.821,8.533-8.533S166.846,34.133,162.133,34.133z"/>
		<path d="M249.941,301.141c-0.341,0.425-0.683,0.85-1.025,1.279c-0.323,0.475-0.582,0.991-0.771,1.533
			c-0.246,0.484-0.417,1.002-0.508,1.537c-0.1,0.564-0.157,1.136-0.171,1.709c-0.022,2.27,0.87,4.453,2.475,6.058
			c1.605,1.605,3.788,2.497,6.058,2.475c1.115-0.014,2.216-0.246,3.242-0.683c2.143-0.777,3.831-2.465,4.608-4.608
			c0.438-1.026,0.67-2.127,0.684-3.242c-0.015-0.573-0.072-1.144-0.171-1.708c-0.095-0.535-0.268-1.053-0.512-1.537
			c-0.188-0.543-0.448-1.058-0.771-1.533c-0.337-0.429-0.679-0.854-1.021-1.279C258.637,297.983,253.363,297.983,249.941,301.141z"
			/>
	</g>
</g>
<g>
</g>
<g>
</g>
<g>
</g>
<g>
</g>
<g>
</g>
<g>
</g>
<g>
</g>
<g>
</g>
<g>
</g>
<g>
</g>
<g>
</g>
<g>
</g>
<g>
</g>
<g>
</g>
<g>
</g>
</svg>
